<?xml version="1.0" standalone="no"?>
<!DOCTYPE svg PUBLIC "-//W3C//DTD SVG 20010904//EN"
 "http://www.w3.org/TR/2001/REC-SVG-20010904/DTD/svg10.dtd">
<svg version="1.0" xmlns="http://www.w3.org/2000/svg"
 width="1010.000000pt" height="1010.000000pt" viewBox="0 0 1010.000000 1010.000000"
 preserveAspectRatio="xMidYMid meet">
<metadata>
Created by potrace 1.14, written by Peter Selinger 2001-2017
</metadata>
<g transform="translate(0.000000,1010.000000) scale(0.100000,-0.100000)"
fill="#000000" stroke="none">
<path d="M4345 9960 c-27 -4 -68 -10 -90 -13 -22 -3 -62 -11 -90 -17 -27 -7
-57 -13 -65 -15 -93 -19 -358 -106 -445 -145 -22 -10 -74 -33 -115 -50 -41
-18 -112 -50 -158 -71 l-83 -39 -58 49 c-291 241 -747 271 -1213 78 -208 -87
-376 -201 -548 -376 -127 -128 -221 -254 -291 -390 -69 -133 -70 -134 -144
-147 -14 -2 -35 -6 -47 -8 -306 -55 -581 -276 -729 -586 -20 -43 -66 -167 -74
-200 -64 -276 -53 -508 37 -740 97 -251 286 -463 515 -579 61 -30 189 -76 242
-86 49 -9 146 -18 193 -17 45 1 47 0 59 -36 91 -282 337 -511 627 -582 229
-55 443 -41 778 51 82 23 158 44 170 46 16 4 27 -5 50 -41 30 -48 58 -65 211
-130 88 -37 270 -44 443 -17 69 11 136 24 150 29 l26 10 49 -166 c48 -162 66
-198 146 -296 5 -6 32 -40 60 -76 27 -36 58 -75 67 -86 9 -12 57 -53 106 -92
82 -64 95 -79 167 -198 43 -71 79 -137 79 -147 0 -10 -38 -73 -84 -140 -45
-67 -85 -131 -88 -142 -3 -11 -17 -58 -31 -105 -91 -305 -118 -414 -142 -580
-4 -24 -8 -47 -10 -50 -1 -3 -6 -27 -9 -54 -10 -70 -32 -172 -60 -274 -13 -48
-39 -143 -57 -212 -20 -77 -45 -144 -64 -175 -17 -27 -66 -108 -109 -178 -55
-90 -81 -125 -89 -119 -22 18 -52 -5 -107 -80 -30 -41 -71 -86 -91 -99 -20
-13 -90 -74 -155 -135 -66 -61 -133 -124 -151 -140 -18 -16 -58 -76 -89 -134
-128 -237 -184 -348 -184 -366 0 -14 -8 -19 -32 -20 -57 -2 -66 -35 -43 -159
31 -168 34 -194 26 -247 -4 -31 -6 -63 -5 -72 1 -8 5 -63 9 -123 20 -297 27
-377 35 -388 5 -5 10 -36 13 -67 2 -32 9 -64 16 -72 6 -7 14 -51 17 -96 7 -98
17 -130 41 -130 12 0 26 -17 40 -48 27 -58 67 -102 94 -102 22 0 100 -37 110
-52 10 -16 143 -10 187 8 45 17 62 49 62 116 0 21 -27 145 -59 276 -105 420
-124 527 -122 681 1 86 9 172 22 240 21 109 22 110 190 418 55 101 157 223
249 299 65 53 96 89 128 141 35 60 102 148 163 216 9 10 21 39 27 65 6 26 29
112 50 192 22 80 51 188 65 241 15 53 36 149 47 215 66 378 66 374 139 623 52
175 67 212 105 265 46 64 72 102 160 230 47 67 71 90 168 159 62 44 167 113
233 153 108 66 140 93 317 267 109 107 210 200 226 206 23 10 37 32 77 127 50
116 62 132 145 194 18 14 48 37 66 51 21 17 75 38 146 57 l113 31 230 -5 c127
-3 262 -6 300 -7 61 -1 89 6 213 51 78 28 152 57 163 63 17 8 105 177 113 214
1 6 7 20 14 32 7 12 12 28 12 35 0 11 169 114 388 235 78 44 70 43 121 13 77
-45 181 -66 349 -71 37 -1 86 -9 109 -17 36 -14 47 -26 84 -91 147 -264 297
-399 524 -471 86 -27 229 -29 314 -4 204 58 347 224 414 478 16 61 30 93 43
100 136 76 217 143 306 255 139 174 210 396 212 661 0 76 -10 214 -19 260 -28
142 -44 198 -91 315 -15 39 -43 96 -61 128 -18 33 -33 61 -33 64 0 20 -141
203 -210 273 -288 291 -618 406 -955 335 -100 -22 -155 -25 -179 -13 -10 5
-59 53 -109 105 -158 164 -355 276 -570 323 -88 19 -121 22 -238 24 -127 2
-134 4 -171 65 -72 119 -242 299 -376 399 -271 201 -599 312 -931 315 -115 1
-276 -9 -290 -17 -3 -2 -24 -7 -46 -10 -62 -10 -152 -37 -244 -73 l-85 -33
-50 34 c-210 139 -498 217 -791 214 -77 -1 -162 -4 -190 -8z m1410 -3392 c29
-24 61 -48 71 -55 17 -11 17 -14 4 -22 -9 -5 -28 -36 -44 -68 -26 -56 -29 -59
-64 -59 -21 1 -46 -2 -57 -6 -16 -6 -34 5 -83 50 l-64 57 52 39 c28 22 68 54
88 72 20 19 39 34 41 34 2 0 28 -19 56 -42z m-2168 -166 c2 -25 -3 -30 -45
-44 -58 -20 -84 -26 -153 -34 -110 -13 -104 -6 45 46 76 27 141 52 144 55 3 3
6 5 6 5 1 0 2 -13 3 -28z m3278 -49 c-4 -10 -9 -25 -12 -34 -3 -11 -51 -34
-134 -64 l-130 -47 -147 8 c-81 4 -180 7 -221 7 l-74 -1 39 34 c21 18 42 33
46 34 4 0 7 10 5 23 -2 25 8 26 118 10 111 -16 268 -6 415 26 47 10 89 19 94
20 4 0 5 -7 1 -16z m-2945 -80 c218 -90 391 -122 628 -117 185 3 177 3 247 16
28 5 66 11 85 14 53 9 194 51 278 84 l75 29 37 -32 c87 -75 176 -154 211 -187
l37 -35 -63 -143 -63 -143 -148 -145 c-81 -80 -160 -152 -176 -162 -15 -9 -30
-23 -33 -32 -10 -31 -91 -97 -195 -160 -118 -72 -339 -224 -357 -247 -10 -13
-13 -12 -22 5 -6 11 -12 29 -14 39 -2 10 -9 36 -15 58 -6 22 -12 58 -14 80 -2
30 -26 78 -96 193 -108 180 -122 200 -142 207 -8 3 -31 20 -50 37 -20 18 -48
41 -62 50 -31 20 -234 277 -250 316 -16 41 -21 326 -5 319 6 -3 55 -23 107
-44z"/>
<path d="M780 4880 c0 -14 -34 -26 -97 -34 -28 -3 -63 -10 -76 -15 -14 -5 -28
-7 -31 -4 -3 3 -11 1 -18 -4 -20 -15 -57 -22 -60 -11 -2 5 -16 0 -31 -12 -20
-16 -41 -22 -77 -22 -29 1 -53 -5 -60 -13 -6 -8 -19 -11 -27 -8 -10 4 -14 2
-10 -4 4 -6 -2 -13 -13 -16 -12 -3 -18 -1 -14 5 4 6 -4 3 -17 -5 -21 -13 -158
-51 -220 -60 -23 -4 -24 -7 -27 -103 -4 -142 -6 -139 75 -141 52 -1 70 3 80
15 12 15 13 16 7 1 -4 -13 1 -16 28 -15 18 1 39 5 47 10 9 6 12 5 8 -1 -7 -11
58 -11 69 -1 3 4 19 2 35 -2 20 -6 29 -5 29 3 0 8 3 8 8 2 10 -14 32 -17 32
-5 0 7 6 7 18 1 10 -6 24 -6 32 -1 8 5 18 6 23 3 15 -9 108 -10 113 -1 3 4 13
4 22 -1 21 -10 73 -9 91 3 9 6 12 5 7 -2 -7 -12 61 -12 81 1 6 4 14 3 17 -2
10 -16 716 -14 716 2 0 8 3 9 8 1 9 -14 263 -14 255 0 -3 5 -1 6 5 2 21 -12
133 -16 126 -4 -5 7 -2 8 7 2 17 -11 119 -13 119 -2 0 14 29 -4 33 -20 4 -15
5 -15 6 1 0 9 9 17 19 18 9 0 28 2 40 5 18 3 25 -1 29 -17 4 -16 8 -17 14 -7
7 10 9 8 9 -6 0 -19 0 -19 14 -1 13 18 14 18 25 -2 6 -12 19 -20 28 -19 10 2
32 -3 50 -10 24 -10 34 -11 39 -2 5 7 2 8 -7 3 -12 -7 -12 -5 -1 6 11 11 14
12 21 1 7 -11 9 -11 14 1 3 8 19 18 36 22 17 4 33 11 36 16 12 19 41 8 52 -18
l11 -28 1 27 c1 31 14 42 41 33 18 -6 37 -40 31 -60 -1 -5 8 -1 20 10 14 12
19 14 14 5 -6 -12 -5 -13 6 -3 10 11 18 8 41 -14 24 -23 30 -25 38 -13 5 8 10
11 10 5 0 -5 5 -3 10 5 9 13 10 13 10 0 1 -12 3 -11 11 3 6 10 20 23 32 28 21
9 45 23 77 43 15 10 60 16 123 15 24 0 37 5 37 13 0 9 3 9 10 -2 5 -8 10 -11
10 -6 0 5 7 2 16 -5 11 -9 40 -12 87 -11 99 3 98 12 -2 12 -67 0 -82 3 -78 14
4 11 -8 14 -61 13 -37 -1 -70 -6 -74 -12 -4 -5 -8 1 -9 15 0 14 -3 19 -6 13
-6 -15 -54 -18 -51 -3 2 6 -8 16 -22 23 -14 8 -24 18 -23 24 1 5 -12 10 -28
10 -17 0 -35 6 -39 13 -5 8 -16 15 -26 16 -9 2 -20 7 -23 13 -4 5 -15 8 -26 7
-11 -2 -24 -1 -30 2 -5 3 -20 7 -33 8 -14 2 -32 6 -41 10 -9 4 -30 8 -46 9
-17 0 -35 4 -40 7 -6 3 -37 9 -70 12 -33 4 -78 11 -100 16 -22 5 -61 10 -87
10 -27 0 -48 4 -48 9 0 4 -17 5 -38 1 -21 -4 -47 -5 -58 -2 -10 2 -55 4 -99 4
-44 0 -89 4 -101 8 -11 5 -74 11 -139 14 -78 4 -122 11 -127 19 -5 8 -40 12
-110 13 -64 0 -112 5 -127 13 -13 8 -43 15 -65 16 -93 7 -170 30 -159 48 5 9
3 9 -8 1 -10 -9 -33 -7 -89 8 -41 10 -114 20 -161 22 -48 2 -96 9 -108 15 -14
8 -21 8 -21 1z m-500 -329 c0 -11 -39 -21 -45 -11 -2 4 -2 10 2 14 10 9 43 7
43 -3z m163 -18 c-7 -2 -19 -2 -25 0 -7 3 -2 5 12 5 14 0 19 -2 13 -5z m94 1
c-3 -3 -12 -4 -19 -1 -8 3 -5 6 6 6 11 1 17 -2 13 -5z m2202 -16 c0 -16 -2
-18 -6 -8 -3 8 -11 18 -17 22 -7 5 -4 8 7 8 11 0 17 -7 16 -22z m44 -7 c3 -14
1 -18 -9 -14 -15 6 -18 16 -7 26 9 10 10 9 16 -12z m67 -5 c0 -2 -11 -6 -25
-8 -13 -3 -22 -1 -19 3 5 9 44 13 44 5z m-2275 -46 c3 -6 -1 -7 -9 -4 -18 7
-21 14 -7 14 6 0 13 -4 16 -10z"/>
<path d="M6115 4793 c-16 -3 -34 -8 -40 -13 -12 -10 -183 -57 -290 -80 -44 -9
-93 -24 -110 -33 -16 -9 -93 -40 -170 -68 -144 -52 -267 -109 -297 -136 -15
-13 -38 -15 -133 -11 -63 3 -117 3 -120 0 -6 -6 -7 -7 -82 -16 -63 -7 -83 -15
-83 -30 0 -12 75 -34 135 -39 19 -1 33 -10 41 -25 6 -13 17 -29 22 -34 16 -16
112 -20 130 -6 30 25 106 27 213 4 20 -4 110 -10 200 -12 90 -2 172 -4 182 -5
9 0 23 6 31 14 11 10 70 14 282 16 147 1 276 7 286 12 30 16 929 13 1244 -5
40 -2 74 2 95 12 19 8 40 14 48 13 7 -1 11 2 7 7 -6 11 24 9 43 -2 7 -5 17 -4
23 2 8 8 17 8 30 1 13 -7 18 -6 18 3 0 8 3 9 8 3 8 -12 72 -14 72 -2 0 4 9 3
20 -3 12 -6 20 -7 20 -1 0 5 11 6 25 3 13 -4 61 -5 105 -2 45 3 84 3 88 0 17
-14 100 -36 197 -54 11 -2 38 -8 60 -13 33 -8 47 -7 75 8 23 13 37 15 46 9 7
-7 20 -7 37 -1 17 7 28 6 36 -2 7 -7 12 -7 11 -2 -4 20 1 22 40 15 24 -4 40
-4 40 3 0 5 9 7 20 4 24 -6 37 10 21 26 -17 17 -13 29 7 19 9 -5 40 -13 67
-17 28 -4 61 -10 75 -12 55 -9 161 -11 187 -4 16 5 37 5 47 1 10 -3 44 2 75
13 31 10 79 21 106 24 52 5 340 7 485 3 58 -2 96 2 120 12 19 8 46 13 60 10
25 -5 85 -6 115 -1 9 1 15 13 15 31 0 17 -4 27 -10 23 -5 -3 -10 3 -10 15 0
12 5 18 10 15 22 -14 9 57 -15 81 -40 39 -182 102 -260 114 -75 12 -244 16
-285 7 -14 -3 -47 -10 -75 -16 -27 -6 -61 -13 -74 -15 -13 -3 -47 -13 -75 -23
-28 -9 -57 -16 -63 -15 -7 2 -13 -1 -13 -6 0 -4 -26 -16 -57 -26 -83 -26 -143
-59 -182 -98 l-34 -35 -213 -2 c-181 -2 -217 0 -237 14 -21 15 -21 15 13 9 19
-4 37 -8 39 -10 1 -1 14 1 27 6 13 5 24 6 24 1 0 -4 14 -8 30 -8 17 0 30 4 30
8 0 5 6 6 14 3 8 -3 17 -1 21 5 6 11 -7 15 -32 12 -7 -1 -22 3 -32 9 -13 7
-22 7 -26 0 -4 -7 -13 -6 -27 1 -11 6 -39 13 -61 15 -22 2 -45 8 -52 14 -6 5
-15 7 -18 3 -4 -3 -7 -2 -7 3 0 6 -24 16 -52 24 -29 7 -69 20 -88 28 -19 9
-37 16 -40 17 -3 1 -13 5 -22 9 -9 4 -23 9 -31 10 -8 1 -21 7 -28 13 -14 10
-72 26 -85 23 -4 -1 -10 2 -13 7 -9 14 -141 54 -196 60 -116 12 -365 2 -535
-22 -66 -9 -114 -16 -152 -22 -64 -10 -314 -6 -383 6 -72 13 -83 16 -160 37
-33 9 -69 18 -80 19 -11 2 -45 11 -75 19 -79 22 -323 40 -395 29z"/>
<path d="M3730 4500 c0 -5 5 -10 11 -10 5 0 7 5 4 10 -3 6 -8 10 -11 10 -2 0
-4 -4 -4 -10z"/>
<path d="M3790 4500 c-12 -7 -10 -9 7 -7 12 0 19 5 17 9 -6 10 -6 10 -24 -2z"/>
<path d="M3090 4490 c0 -5 5 -10 10 -10 6 0 10 5 10 10 0 6 -4 10 -10 10 -5 0
-10 -4 -10 -10z"/>
<path d="M3120 4492 c0 -4 17 -9 37 -10 44 -3 42 3 -4 11 -18 4 -33 3 -33 -1z"/>
<path d="M3688 4493 c7 -3 16 -2 19 1 4 3 -2 6 -13 5 -11 0 -14 -3 -6 -6z"/>
<path d="M3398 4473 c6 -2 18 -2 25 0 6 3 1 5 -13 5 -14 0 -19 -2 -12 -5z"/>
<path d="M3263 4463 c15 -2 37 -2 50 0 12 2 0 4 -28 4 -27 0 -38 -2 -22 -4z"/>
<path d="M789 3675 c-3 -2 -15 -6 -27 -8 -18 -3 -73 -57 -58 -57 3 0 1 -12 -4
-26 -7 -18 -7 -31 0 -39 8 -10 8 -15 -1 -21 -8 -4 -9 -3 -5 4 4 7 2 12 -3 12
-6 0 -11 -9 -11 -21 0 -13 10 -23 31 -31 19 -6 28 -15 25 -24 -3 -7 -1 -16 4
-19 6 -4 10 -14 10 -24 0 -20 52 -37 73 -24 5 3 7 1 4 -4 -4 -6 3 -13 16 -17
38 -10 85 -7 90 7 4 9 6 8 6 -2 1 -9 5 -10 14 -3 6 5 23 12 37 14 14 2 24 9
23 15 -2 8 16 9 57 6 50 -5 64 -3 81 13 12 10 23 18 25 17 9 -6 25 -2 21 5 -3
4 27 7 66 6 40 0 80 4 90 8 11 6 17 5 17 -3 0 -7 9 -4 21 7 11 10 20 14 19 9
-5 -22 1 -25 21 -14 17 9 20 8 13 -3 -5 -8 1 -7 19 5 24 15 26 16 20 0 -5 -12
-3 -14 8 -8 8 5 27 8 44 6 74 -8 141 -6 154 3 11 8 13 8 8 0 -7 -11 1 -13 103
-26 14 -2 31 -11 38 -21 7 -9 17 -15 22 -12 4 2 13 -9 20 -25 7 -17 16 -30 21
-30 10 0 1 -49 -12 -66 -5 -6 -3 -16 4 -24 10 -12 9 -12 -4 -2 -13 10 -19 9
-28 -2 -9 -11 -9 -15 1 -20 7 -3 3 -3 -9 0 -16 4 -30 -2 -47 -19 -14 -14 -28
-22 -31 -19 -13 13 -24 -22 -12 -38 10 -13 10 -13 -4 -2 -13 10 -19 9 -29 -3
-7 -8 -9 -15 -4 -15 5 0 3 -4 -3 -8 -16 -10 -20 -91 -6 -100 6 -4 120 -7 253
-7 133 0 243 -2 245 -5 6 -9 58 -6 74 5 10 5 12 4 7 -3 -5 -9 7 -12 41 -13 26
0 57 -2 68 -4 40 -8 81 -9 93 -1 7 4 12 2 12 -5 0 -8 4 -8 15 1 9 7 14 14 12
16 -9 9 -184 27 -249 24 -20 0 -71 8 -113 19 -42 11 -80 20 -83 20 -4 -1 -11
0 -17 1 -29 7 -81 4 -88 -5 -6 -7 -10 -6 -14 3 -2 6 -9 10 -14 6 -5 -3 -9 -1
-9 4 0 14 24 21 52 16 18 -3 17 -1 -7 10 -16 9 -38 15 -49 16 -15 0 -10 7 20
35 21 19 34 35 30 35 -4 0 0 7 9 16 9 9 14 23 11 30 -3 7 0 16 6 20 7 5 8 2 3
-6 -5 -8 -4 -11 3 -6 12 7 5 125 -9 142 -5 6 -6 14 -2 17 9 9 -16 36 -30 33
-7 -1 -9 -1 -4 1 4 3 7 14 7 24 0 11 -3 18 -7 16 -5 -3 -8 8 -9 25 -1 33 -23
62 -31 40 -4 -9 -10 -7 -22 7 -10 12 -21 18 -25 14 -3 -3 -6 -1 -6 6 0 8 -10
11 -30 7 -16 -2 -30 0 -30 5 0 6 -31 8 -72 6 -61 -3 -73 -6 -72 -20 1 -9 -3
-14 -8 -11 -5 3 -7 12 -4 19 3 10 -3 13 -22 10 -15 -1 -33 -3 -40 -4 -8 -1
-10 -6 -6 -13 5 -9 2 -9 -9 1 -9 7 -17 9 -17 4 0 -9 -11 -11 -87 -16 -23 -1
-45 -5 -48 -9 -3 -3 -31 0 -60 7 -30 7 -56 10 -59 8 -8 -8 -124 -8 -119 0 2 4
-1 7 -6 7 -6 0 -11 -6 -11 -12 0 -10 -2 -10 -8 0 -5 7 -27 12 -53 11 -24 -1
-57 4 -74 11 -53 22 -125 38 -125 29 0 -21 -51 12 -62 40 -4 10 -72 23 -79 16z
m-49 -90 c0 -2 -6 -8 -13 -14 -10 -8 -14 -7 -14 2 0 8 6 14 14 14 7 0 13 -1
13 -2z m61 -12 c13 -16 12 -17 -3 -4 -10 7 -18 15 -18 17 0 8 8 3 21 -13z
m974 7 c-3 -5 -12 -10 -18 -10 -7 0 -6 4 3 10 19 12 23 12 15 0z m-865 -20 c0
-5 -2 -10 -4 -10 -3 0 -8 5 -11 10 -3 6 -1 10 4 10 6 0 11 -4 11 -10z m901
-17 c13 -16 12 -17 -3 -4 -17 13 -22 21 -14 21 2 0 10 -8 17 -17z m-1006 -2
c3 -5 2 -12 -3 -15 -5 -3 -9 1 -9 9 0 17 3 19 12 6z m215 5 c0 -2 -8 -10 -17
-17 -16 -13 -17 -12 -4 4 13 16 21 21 21 13z m250 -2 c0 -8 -19 -13 -24 -6 -3
5 1 9 9 9 8 0 15 -2 15 -3z m134 -10 c3 -8 2 -12 -4 -9 -6 3 -10 10 -10 16 0
14 7 11 14 -7z m77 -1 c13 -16 12 -17 -3 -4 -17 13 -22 21 -14 21 2 0 10 -8
17 -17z m240 -6 c-10 -9 -11 -8 -5 6 3 10 9 15 12 12 3 -3 0 -11 -7 -18z
m-491 -1 c0 -3 -4 -8 -10 -11 -5 -3 -10 -1 -10 4 0 6 5 11 10 11 6 0 10 -2 10
-4z m-414 -28 c3 -4 -1 -5 -10 -4 -8 1 -18 5 -22 8 -3 4 1 5 10 4 8 -1 18 -5
22 -8z m74 8 c0 -2 -7 -7 -16 -10 -8 -3 -12 -2 -9 4 6 10 25 14 25 6z m660
-26 c0 -5 -5 -10 -11 -10 -5 0 -7 5 -4 10 3 6 8 10 11 10 2 0 4 -4 4 -10z m80
0 c0 -5 -5 -10 -11 -10 -5 0 -7 5 -4 10 3 6 8 10 11 10 2 0 4 -4 4 -10z m-624
-26 c1 -9 0 -13 -4 -10 -3 4 -7 14 -8 22 -1 9 0 13 4 10 3 -4 7 -14 8 -22z
m805 9 c13 -16 12 -17 -3 -4 -10 7 -18 15 -18 17 0 8 8 3 21 -13z m79 13 c0
-2 -8 -10 -17 -17 -16 -13 -17 -12 -4 4 13 16 21 21 21 13z m-910 -10 c0 -2
-8 -10 -17 -17 -16 -13 -17 -12 -4 4 13 16 21 21 21 13z m125 -26 c3 -5 1 -10
-4 -10 -6 0 -11 5 -11 10 0 6 2 10 4 10 3 0 8 -4 11 -10z m840 -80 c3 -5 1
-10 -4 -10 -6 0 -11 5 -11 10 0 6 2 10 4 10 3 0 8 -4 11 -10z m65 -40 c0 -5
-2 -10 -4 -10 -3 0 -8 5 -11 10 -3 6 -1 10 4 10 6 0 11 -4 11 -10z m-46 -106
c3 -8 2 -12 -4 -9 -6 3 -10 10 -10 16 0 14 7 11 14 -7z m-94 -14 c0 -5 -5 -10
-11 -10 -5 0 -7 5 -4 10 3 6 8 10 11 10 2 0 4 -4 4 -10z m-24 -35 c-1 -8 -5
-17 -8 -21 -5 -4 -4 16 1 34 3 9 9 -1 7 -13z m-16 -45 c0 -5 -5 -10 -11 -10
-5 0 -7 5 -4 10 3 6 8 10 11 10 2 0 4 -4 4 -10z m113 -20 c-3 -12 -8 -18 -11
-15 -3 2 -11 0 -19 -6 -10 -9 -13 -8 -13 0 0 7 -4 10 -9 7 -12 -8 -41 4 -41
16 0 7 5 6 13 -1 8 -6 16 -8 19 -6 3 3 16 8 28 10 12 2 25 7 28 10 9 9 10 6 5
-15z m-143 -5 c14 -17 15 -17 -27 -19 -17 -1 -29 2 -26 7 3 5 11 6 19 3 7 -3
16 -1 19 4 3 5 -5 11 -17 13 -22 4 -22 4 -2 6 12 0 27 -6 34 -14z m240 -29 c0
-2 -8 -10 -17 -17 -16 -13 -17 -12 -4 4 13 16 21 21 21 13z m105 -26 c-3 -5
-12 -10 -18 -10 -7 0 -6 4 3 10 19 12 23 12 15 0z"/>
<path d="M6415 3279 c-22 -4 -113 -7 -202 -7 -89 0 -168 -4 -174 -8 -7 -4 -9
-3 -5 4 4 7 -16 9 -66 7 -107 -6 -179 -16 -174 -23 5 -8 -52 -8 -60 0 -3 3
-21 4 -39 1 -28 -4 -34 -2 -29 11 5 13 -7 14 -93 10 -54 -2 -105 -6 -113 -8
-8 -1 -36 -6 -62 -11 -27 -4 -48 -11 -48 -16 0 -5 -3 -8 -7 -7 -19 4 -93 -15
-88 -23 4 -5 -2 -6 -11 -2 -13 5 -16 2 -12 -8 4 -10 -3 -14 -24 -15 -36 -1
-41 -6 -42 -43 -1 -16 -4 -27 -7 -25 -4 2 -12 -3 -19 -11 -7 -8 -9 -15 -4 -15
5 0 1 -5 -8 -11 -33 -19 -22 -44 19 -46 21 -1 41 3 45 10 6 8 10 9 16 1 8 -12
52 -11 72 1 9 5 11 4 6 -3 -4 -7 -2 -12 5 -12 7 0 4 -7 -7 -15 -18 -13 -17
-14 11 -12 20 1 29 -2 27 -11 -1 -8 2 -11 8 -7 5 3 10 1 10 -5 0 -6 24 -9 65
-8 36 2 65 5 65 8 0 3 9 6 20 6 11 0 20 -3 20 -7 0 -3 17 -3 38 1 21 4 47 5
57 4 11 -2 25 2 32 8 9 7 13 7 13 0 0 -6 13 -7 35 -2 19 4 35 5 35 1 0 -3 5 1
11 9 8 11 12 12 16 2 2 -6 9 -10 14 -6 10 6 51 14 82 17 9 1 17 5 17 10 0 4 5
5 10 2 6 -4 35 1 64 9 30 9 66 17 80 18 14 1 26 7 26 13 0 5 4 3 10 -5 7 -12
13 -10 32 11 13 14 31 23 42 21 13 -3 16 0 10 10 -6 10 -5 11 7 2 11 -8 144
-12 144 -5 0 1 34 4 75 6 78 4 124 20 113 39 -4 8 -3 8 6 1 11 -11 84 -8 77 4
-2 3 10 6 27 7 18 0 57 3 87 7 30 4 94 7 142 8 62 1 86 5 81 13 -4 6 1 4 12
-4 21 -17 24 -17 36 2 5 7 9 8 9 2 0 -6 16 -11 35 -12 26 -1 34 2 28 11 -5 9
-4 9 8 0 12 -10 18 -10 29 0 10 9 11 9 6 -1 -6 -10 8 -13 61 -12 114 1 296
-15 316 -27 6 -4 8 2 5 15 -4 12 -2 20 3 16 5 -3 9 -11 9 -18 0 -14 11 -16
102 -19 32 -1 58 -5 58 -8 0 -4 9 -9 20 -12 11 -3 20 -1 20 4 0 5 5 9 11 9 5
0 7 -4 4 -10 -3 -6 6 -11 22 -12 34 -1 43 -3 63 -11 55 -22 113 -36 123 -31 7
4 9 4 5 -1 -4 -4 18 -20 50 -35 31 -15 63 -34 71 -44 9 -10 22 -14 35 -11 15
5 17 4 7 -3 -11 -8 -10 -14 7 -32 20 -21 37 -68 29 -77 -3 -2 -56 -6 -118 -9
-120 -5 -155 -8 -229 -18 -65 -10 -103 -15 -118 -15 -7 -1 -11 -4 -9 -8 3 -5
-20 -9 -50 -10 -31 -1 -60 -6 -65 -11 -6 -6 -17 -8 -24 -5 -8 3 -14 1 -14 -4
0 -5 -10 -9 -21 -8 -38 3 -144 -32 -141 -46 3 -10 0 -10 -12 1 -9 7 -16 8 -16
3 0 -5 -12 -10 -27 -11 -15 -1 -29 -5 -32 -10 -3 -4 -10 -7 -16 -7 -32 -1 -74
-18 -69 -27 4 -6 2 -8 -4 -5 -33 21 -215 -94 -196 -124 4 -7 3 -10 -3 -6 -17
10 -25 -24 -11 -41 10 -12 10 -14 1 -8 -16 9 -17 -10 -2 -53 11 -31 88 -94
116 -94 7 0 13 -4 13 -8 0 -3 10 -9 23 -12 12 -3 38 -10 57 -16 59 -17 154
-39 170 -39 17 0 45 -7 75 -17 16 -6 17 -5 5 4 -8 6 -10 11 -4 11 5 0 14 -4
20 -9 10 -10 82 -22 156 -26 25 -1 51 -6 57 -9 6 -4 11 -1 11 6 0 8 3 9 8 3
10 -14 71 -26 154 -29 21 0 38 -5 38 -10 0 -5 8 -2 17 5 11 10 14 10 9 2 -4
-8 -2 -13 6 -14 13 -1 29 -4 58 -10 8 -2 23 -12 33 -21 11 -9 27 -14 36 -11
13 4 14 3 1 -5 -12 -9 -11 -14 5 -33 11 -12 14 -19 8 -15 -8 4 -23 -4 -38 -20
-14 -15 -25 -24 -25 -21 0 3 -18 0 -40 -8 -43 -15 -42 -15 -66 -15 -9 0 -12
-5 -8 -12 6 -10 5 -10 -8 -1 -8 7 -17 11 -20 8 -8 -8 -149 -16 -318 -17 -85
-1 -163 -5 -172 -10 -12 -6 -18 -5 -18 2 0 6 -5 8 -11 4 -6 -3 -38 -8 -72 -10
-35 -2 -64 -9 -68 -16 -5 -7 -9 -8 -9 -2 0 6 -7 11 -15 11 -8 0 -15 -4 -15 -8
0 -4 -10 -5 -22 -1 -13 3 -19 1 -15 -5 5 -7 0 -9 -13 -6 -11 3 -28 2 -37 -2
-10 -5 -24 -7 -32 -6 -8 1 -10 -2 -5 -10 4 -8 3 -10 -4 -5 -15 9 -92 -12 -92
-25 0 -6 -4 -8 -9 -4 -14 8 -163 -71 -200 -107 -18 -17 -42 -45 -53 -62 l-22
-31 25 20 c13 11 29 24 34 30 6 5 19 15 30 22 11 6 19 16 18 22 -2 6 4 8 12 5
8 -4 15 -1 15 5 0 6 3 10 8 9 9 -3 72 30 96 51 11 9 16 11 13 4 -4 -6 17 -2
45 10 29 12 54 25 56 28 2 4 12 5 22 2 12 -3 20 0 20 6 0 7 4 9 10 6 5 -3 29
-1 52 6 24 6 53 12 65 13 12 1 25 5 28 8 4 4 18 4 32 2 13 -3 22 -1 20 3 -3 4
27 8 66 7 40 0 79 3 88 8 9 4 22 2 29 -5 10 -10 12 -8 6 7 -5 14 -4 16 6 8 7
-6 51 -9 101 -8 48 1 87 -1 87 -4 0 -3 23 -6 50 -6 28 0 50 3 50 8 0 4 5 8 11
8 5 0 8 -4 5 -9 -3 -5 5 -9 19 -8 14 0 22 4 18 10 -4 6 -1 7 8 1 23 -14 49
-15 49 -1 0 7 3 8 8 2 9 -13 35 -18 27 -5 -3 5 -1 10 4 10 6 0 11 -5 11 -11 0
-8 4 -8 13 -2 6 6 21 9 32 7 25 -4 137 23 173 42 15 8 32 14 39 14 6 0 19 10
27 22 18 25 22 83 6 73 -6 -4 -10 -3 -9 2 4 20 -3 30 -33 48 -33 19 -45 24
-83 29 -11 2 -27 6 -36 10 -9 4 -33 8 -53 9 -20 1 -36 5 -36 10 0 4 -12 7 -28
7 -15 0 -41 4 -58 9 -19 5 -37 5 -49 -1 -13 -8 -16 -7 -11 1 5 7 -3 11 -21 12
-15 0 -37 2 -48 4 -11 1 -42 5 -69 9 -27 3 -52 9 -57 11 -4 3 -11 1 -14 -5 -5
-8 -11 -7 -21 1 -7 6 -21 9 -29 5 -8 -3 -15 0 -15 6 0 9 -3 9 -12 0 -7 -7 -17
-12 -22 -12 -6 0 -5 4 3 9 10 7 1 11 -32 16 -25 4 -51 4 -58 -1 -7 -4 -10 -3
-6 3 4 6 -18 16 -51 23 -31 8 -59 14 -62 15 -3 1 -18 5 -35 9 -16 4 -43 14
-60 21 -16 8 -33 11 -37 9 -4 -3 -8 0 -8 6 0 6 -4 9 -8 6 -5 -3 -9 1 -9 9 0
17 14 20 19 4 2 -5 10 -11 18 -13 8 -1 24 -7 35 -13 11 -6 23 -11 28 -11 4 -1
31 -7 60 -16 28 -8 66 -17 82 -19 17 -2 37 -7 45 -10 15 -6 206 -33 290 -42
34 -3 39 -2 20 4 -14 5 -42 9 -62 10 -21 1 -38 5 -38 9 0 4 18 8 40 7 22 0 40
-4 40 -8 0 -5 22 -7 49 -5 27 1 47 -1 44 -5 -3 -5 3 -8 13 -6 11 1 26 0 34 -3
32 -12 143 -27 153 -21 6 3 7 1 4 -4 -4 -6 0 -17 9 -24 12 -10 20 -10 35 -1
21 14 26 3 7 -17 -11 -10 -10 -11 5 -6 9 4 17 12 17 19 0 6 5 4 10 -4 5 -8 13
-15 17 -15 15 -1 103 -48 98 -53 -3 -3 2 -13 11 -23 10 -12 15 -29 12 -49 -3
-16 -1 -30 4 -30 4 0 8 3 9 8 0 4 2 15 4 26 5 28 -11 62 -46 95 -30 29 -42 35
-61 32 -5 0 -8 3 -8 9 0 6 -3 9 -7 8 -5 0 -24 6 -44 15 -35 16 -142 43 -209
53 -19 3 -54 9 -77 13 -27 5 -46 4 -54 -3 -9 -8 -10 -8 -6 0 9 15 -35 27 -44
12 -4 -6 -8 -6 -10 -1 -2 6 -17 13 -32 17 -22 5 -27 4 -21 -6 6 -10 5 -10 -8
0 -9 7 -29 15 -45 18 -15 2 -59 11 -96 19 -37 9 -72 13 -78 10 -5 -4 -9 -1 -9
4 0 6 -8 11 -17 11 -41 1 -139 42 -159 66 l-22 26 36 34 c20 18 38 31 40 29 3
-3 11 0 18 5 6 6 22 13 34 15 54 10 62 16 48 33 -11 14 -10 14 8 -1 11 -9 23
-15 25 -13 3 3 19 8 37 11 55 9 112 36 105 49 -4 6 1 5 10 -3 9 -7 17 -10 17
-5 0 5 10 9 23 10 27 1 126 14 147 19 8 2 40 7 70 10 30 4 57 7 60 8 3 0 16
-2 30 -6 117 -27 144 -28 184 -8 22 12 42 17 46 12 5 -9 240 -9 270 0 17 5 40
40 34 51 -3 5 -7 18 -9 30 -3 13 -9 24 -14 26 -6 2 -7 10 -4 19 5 12 3 14 -7
8 -8 -5 -11 -4 -6 3 9 14 -14 63 -27 55 -6 -3 -7 -1 -3 6 8 12 -28 67 -71 109
-21 20 -26 22 -41 10 -15 -12 -16 -11 -3 5 8 9 12 19 10 20 -2 2 -19 15 -38
31 -19 15 -40 25 -48 22 -8 -3 -12 -2 -9 3 3 5 -1 14 -9 21 -8 7 -15 9 -15 4
0 -5 -4 -4 -8 2 -9 15 -92 57 -92 47 0 -5 -4 -2 -9 5 -5 8 -24 14 -44 15 -20
0 -34 5 -31 9 3 4 -7 8 -23 9 -60 2 -89 6 -102 14 -10 6 -12 4 -6 -6 7 -11 6
-12 -6 -2 -8 6 -56 14 -106 16 -50 3 -95 7 -99 9 -5 3 -25 6 -44 7 -19 1 -51
4 -70 6 -41 5 -219 17 -272 19 -21 1 -38 5 -38 10 0 5 -8 2 -17 -5 -12 -10
-15 -10 -9 -1 6 10 -12 12 -83 10 -50 -1 -86 -5 -79 -9 8 -5 5 -8 -9 -6 -12 0
-19 5 -17 9 3 4 1 8 -5 8 -5 0 -13 -5 -16 -10 -4 -7 -12 -7 -18 -2 -16 11 -59
13 -52 2 3 -5 1 -12 -5 -15 -6 -4 -9 -1 -8 7 2 10 -30 13 -157 13 -88 1 -178
-2 -200 -6z m-795 -13 c0 -2 -8 -10 -17 -17 -16 -13 -17 -12 -4 4 13 16 21 21
21 13z m210 -20 c0 -3 -4 -8 -10 -11 -5 -3 -10 -1 -10 4 0 6 5 11 10 11 6 0
10 -2 10 -4z m960 -6 c0 -5 -5 -10 -11 -10 -5 0 -7 5 -4 10 3 6 8 10 11 10 2
0 4 -4 4 -10z m120 0 c0 -5 -2 -10 -4 -10 -3 0 -8 5 -11 10 -3 6 -1 10 4 10 6
0 11 -4 11 -10z m195 0 c3 -5 1 -10 -4 -10 -6 0 -11 5 -11 10 0 6 2 10 4 10 3
0 8 -4 11 -10z m-1544 -27 c13 -16 12 -17 -3 -4 -10 7 -18 15 -18 17 0 8 8 3
21 -13z m804 -1 c-3 -3 -11 0 -18 7 -9 10 -8 11 6 5 10 -3 15 -9 12 -12z
m1036 -5 c-10 -9 -11 -8 -5 6 3 10 9 15 12 12 3 -3 0 -11 -7 -18z m-1736 -7
c3 -5 1 -10 -4 -10 -6 0 -11 5 -11 10 0 6 2 10 4 10 3 0 8 -4 11 -10z m325 0
c0 -5 -5 -10 -11 -10 -5 0 -7 5 -4 10 3 6 8 10 11 10 2 0 4 -4 4 -10z m680 0
c0 -5 -5 -10 -11 -10 -5 0 -7 5 -4 10 3 6 8 10 11 10 2 0 4 -4 4 -10z m635 0
c3 -5 1 -10 -4 -10 -6 0 -11 5 -11 10 0 6 2 10 4 10 3 0 8 -4 11 -10z m285 0
c0 -5 -2 -10 -4 -10 -3 0 -8 5 -11 10 -3 6 -1 10 4 10 6 0 11 -4 11 -10z m180
-4 c0 -2 -8 -10 -17 -17 -16 -13 -17 -12 -4 4 13 16 21 21 21 13z m-1600 -10
c0 -2 -7 -7 -16 -10 -8 -3 -12 -2 -9 4 6 10 25 14 25 6z m250 -2 c0 -8 -19
-13 -24 -6 -3 5 1 9 9 9 8 0 15 -2 15 -3z m90 -24 c0 -5 -5 -10 -11 -10 -5 0
-7 5 -4 10 3 6 8 10 11 10 2 0 4 -4 4 -10z m1000 0 c0 -5 -5 -10 -11 -10 -5 0
-7 5 -4 10 3 6 8 10 11 10 2 0 4 -4 4 -10z m-2184 -26 c1 -9 0 -13 -4 -10 -3
4 -7 14 -8 22 -1 9 0 13 4 10 3 -4 7 -14 8 -22z m240 11 c-1 -8 -5 -17 -8 -21
-5 -4 -4 16 1 34 3 9 9 -1 7 -13z m324 11 c0 -2 -8 -10 -17 -17 -16 -13 -17
-12 -4 4 13 16 21 21 21 13z m478 -21 c-3 -3 -9 2 -12 12 -6 14 -5 15 5 6 7
-7 10 -15 7 -18z m-938 -9 c0 -3 -4 -8 -10 -11 -5 -3 -10 -1 -10 4 0 6 5 11
10 11 6 0 10 -2 10 -4z m40 -6 c0 -5 -2 -10 -4 -10 -3 0 -8 5 -11 10 -3 6 -1
10 4 10 6 0 11 -4 11 -10z m320 0 c0 -5 -2 -10 -4 -10 -3 0 -8 5 -11 10 -3 6
-1 10 4 10 6 0 11 -4 11 -10z m400 0 c0 -5 -5 -10 -11 -10 -5 0 -7 5 -4 10 3
6 8 10 11 10 2 0 4 -4 4 -10z m80 6 c0 -3 -4 -8 -10 -11 -5 -3 -10 -1 -10 4 0
6 5 11 10 11 6 0 10 -2 10 -4z m-259 -23 c13 -16 12 -17 -3 -4 -10 7 -18 15
-18 17 0 8 8 3 21 -13z m-726 -11 c-3 -3 -11 0 -18 7 -9 10 -8 11 6 5 10 -3
15 -9 12 -12z m330 8 c-3 -5 -12 -10 -18 -10 -7 0 -6 4 3 10 19 12 23 12 15 0z
m2325 6 c0 -2 -8 -10 -17 -17 -16 -13 -17 -12 -4 4 13 16 21 21 21 13z m65
-14 c-3 -3 -11 0 -18 7 -9 10 -8 11 6 5 10 -3 15 -9 12 -12z m-2095 -12 c0 -5
-5 -10 -11 -10 -5 0 -7 5 -4 10 3 6 8 10 11 10 2 0 4 -4 4 -10z m-339 -17 c13
-16 12 -17 -3 -4 -10 7 -18 15 -18 17 0 8 8 3 21 -13z m2479 13 c0 -2 -8 -10
-17 -17 -16 -13 -17 -12 -4 4 13 16 21 21 21 13z m-2305 -36 c3 -5 1 -10 -4
-10 -6 0 -11 5 -11 10 0 6 2 10 4 10 3 0 8 -4 11 -10z m-315 -34 c0 -3 -4 -8
-10 -11 -5 -3 -10 -1 -10 4 0 6 5 11 10 11 6 0 10 -2 10 -4z m2640 0 c0 -3 -4
-8 -10 -11 -5 -3 -10 -1 -10 4 0 6 5 11 10 11 6 0 10 -2 10 -4z m75 -86 c3 -5
1 -10 -4 -10 -6 0 -11 5 -11 10 0 6 2 10 4 10 3 0 8 -4 11 -10z m35 -54 c0 -2
-8 -10 -17 -17 -16 -13 -17 -12 -4 4 13 16 21 21 21 13z m-210 -30 c0 -2 -8
-10 -17 -17 -16 -13 -17 -12 -4 4 13 16 21 21 21 13z m151 -29 c-10 -9 -11 -8
-5 6 3 10 9 15 12 12 3 -3 0 -11 -7 -18z m83 7 c3 -8 2 -12 -4 -9 -6 3 -10 10
-10 16 0 14 7 11 14 -7z m-539 -14 c3 -5 1 -10 -4 -10 -6 0 -11 5 -11 10 0 6
2 10 4 10 3 0 8 -4 11 -10z m360 0 c3 -5 1 -10 -4 -10 -6 0 -11 5 -11 10 0 6
2 10 4 10 3 0 8 -4 11 -10z m-174 -17 c13 -16 12 -17 -3 -4 -10 7 -18 15 -18
17 0 8 8 3 21 -13z m-66 -23 c3 -5 1 -10 -4 -10 -6 0 -11 5 -11 10 0 6 2 10 4
10 3 0 8 -4 11 -10z m205 0 c0 -5 -5 -10 -11 -10 -5 0 -7 5 -4 10 3 6 8 10 11
10 2 0 4 -4 4 -10z m320 0 c0 -5 -2 -10 -4 -10 -3 0 -8 5 -11 10 -3 6 -1 10 4
10 6 0 11 -4 11 -10z m-869 -33 c-10 -9 -11 -8 -5 6 3 10 9 15 12 12 3 -3 0
-11 -7 -18z m269 -7 c0 -5 -5 -10 -11 -10 -5 0 -7 5 -4 10 3 6 8 10 11 10 2 0
4 -4 4 -10z m400 0 c0 -5 -5 -10 -11 -10 -5 0 -7 5 -4 10 3 6 8 10 11 10 2 0
4 -4 4 -10z m-669 -33 c-10 -9 -11 -8 -5 6 3 10 9 15 12 12 3 -3 0 -11 -7 -18z
m480 6 c13 -16 12 -17 -3 -4 -10 7 -18 15 -18 17 0 8 8 3 21 -13z m-571 -47
c0 -3 -4 -8 -10 -11 -5 -3 -10 -1 -10 4 0 6 5 11 10 11 6 0 10 -2 10 -4z
m-360 -46 c0 -5 -2 -10 -4 -10 -3 0 -8 5 -11 10 -3 6 -1 10 4 10 6 0 11 -4 11
-10z m72 -42 c-6 -6 -12 -6 -17 3 -5 8 -4 10 3 5 7 -4 12 0 13 11 0 12 2 13 6
5 3 -8 1 -18 -5 -24z m-48 -19 c4 6 12 11 19 11 6 0 2 -6 -8 -14 -17 -12 -18
-16 -5 -32 14 -18 14 -18 -4 -4 -18 14 -19 13 -14 -10 3 -14 9 -33 13 -43 5
-13 3 -16 -7 -12 -15 6 -16 10 -18 55 -1 54 1 65 9 51 6 -9 11 -10 15 -2z m96
1 c0 -5 -5 -10 -11 -10 -5 0 -7 5 -4 10 3 6 8 10 11 10 2 0 4 -4 4 -10z m-26
-86 c3 -8 2 -12 -4 -9 -6 3 -10 10 -10 16 0 14 7 11 14 -7z m106 -48 c0 -3 -4
-8 -10 -11 -5 -3 -10 -1 -10 4 0 6 5 11 10 11 6 0 10 -2 10 -4z m-160 -26 c0
-5 -5 -10 -11 -10 -5 0 -7 5 -4 10 3 6 8 10 11 10 2 0 4 -4 4 -10z m195 0 c3
-5 1 -10 -4 -10 -6 0 -11 5 -11 10 0 6 2 10 4 10 3 0 8 -4 11 -10z m-95 -34
c0 -2 -7 -7 -16 -10 -8 -3 -12 -2 -9 4 6 10 25 14 25 6z m133 -31 c4 -8 3 -16
-1 -19 -4 -3 -9 4 -9 15 -2 23 3 25 10 4z m245 8 c-10 -2 -26 -2 -35 0 -10 3
-2 5 17 5 19 0 27 -2 18 -5z m-143 -31 c-3 -3 -11 0 -18 7 -9 10 -8 11 6 5 10
-3 15 -9 12 -12z m125 -36 c-7 -7 -13 -7 -20 0 -6 6 -3 10 10 10 13 0 16 -4
10 -10z m515 -76 c3 -5 1 -10 -4 -10 -6 0 -11 5 -11 10 0 6 2 10 4 10 3 0 8
-4 11 -10z m9 -38 c2 -4 -4 -8 -14 -8 -10 0 -16 4 -14 8 3 4 9 8 14 8 5 0 11
-4 14 -8z m-39 -82 c3 -6 -1 -7 -9 -4 -18 7 -21 14 -7 14 6 0 13 -4 16 -10z
m-35 -36 c0 -8 -19 -13 -24 -6 -3 5 1 9 9 9 8 0 15 -2 15 -3z"/>
<path d="M7687 2289 c10 -8 145 -28 137 -20 -3 3 -37 11 -75 17 -38 5 -66 7
-62 3z"/>
<path d="M7855 2260 c11 -5 27 -9 35 -9 9 0 8 4 -5 9 -11 5 -27 9 -35 9 -9 0
-8 -4 5 -9z"/>
</g>
</svg>
