<svg width="486" height="221" viewBox="0 0 486 221" fill="none" xmlns="http://www.w3.org/2000/svg">
<g clip-path="url(#clip0_2550_8)">
<path d="M75.29 156.506C67.9017 162.135 60.5135 167.412 53.1252 173.041C51.7179 174.097 49.9588 175.152 48.5515 176.208C48.1997 176.56 47.496 176.912 46.7924 176.208C46.4406 175.856 46.7924 175.152 47.1442 174.801C48.9033 172.338 50.3106 170.227 52.0697 167.764C56.2916 162.135 60.5135 156.506 64.7353 150.877C65.0872 150.173 65.7908 149.821 65.439 148.766C60.8653 151.58 55.588 151.228 50.3106 152.284C46.7924 152.988 43.2742 154.747 40.8114 157.209C37.645 160.376 33.4231 162.487 28.8494 162.487C25.683 162.487 22.8685 163.894 20.7575 166.005C18.9984 167.764 16.5357 168.116 14.4247 167.061C16.8875 166.005 18.9984 163.894 20.0539 161.431C21.813 159.32 23.9239 157.561 26.3867 156.858C30.6086 155.45 34.1268 152.284 35.8859 148.414C38.7005 143.84 42.9223 140.674 47.496 138.915C51.3661 137.507 54.8843 135.396 58.0507 132.582C55.588 132.582 52.7734 132.582 50.3106 133.286C42.2187 133.989 34.1268 135.396 26.3867 136.1C25.3312 136.1 23.2203 136.804 23.2203 135.396C22.8685 133.989 24.6276 133.637 26.0349 133.286C34.8304 129.415 43.9778 125.545 52.7734 121.675C53.1252 121.324 53.8288 121.324 54.1807 120.972C49.607 120.972 45.0333 119.564 41.1632 117.454C36.5895 115.343 31.664 114.991 26.7385 116.398C22.8685 117.454 18.9984 117.102 15.4802 115.343C12.6656 113.935 9.49921 113.232 6.33281 113.935C3.87005 114.287 1.40729 113.583 0 111.824C2.46276 111.824 4.92552 111.121 7.03645 110.065C9.49921 109.01 12.6656 108.658 15.4802 109.01C18.6466 110.065 22.1648 109.362 25.3312 107.954C32.3677 103.381 39.7559 103.732 47.496 104.788C50.3106 105.14 53.1252 104.788 55.588 103.732C44.3296 98.4551 33.4231 94.5851 22.5166 88.9559C24.9794 87.9004 27.794 87.5486 30.2567 88.6041C39.0523 89.6596 48.1997 90.715 56.9953 91.4187C51.7179 88.6041 49.2552 83.3268 45.3851 79.1049C43.2742 76.6421 40.8114 74.883 37.645 74.1794C32.7195 73.1239 28.4976 69.9575 25.683 65.7356C24.2758 63.2729 21.813 61.8656 18.9984 60.8101C16.5357 60.1065 15.1284 57.9955 14.7765 55.8846C16.8875 57.2919 18.9984 58.3474 21.1094 57.9955C24.6276 57.9955 27.794 59.4028 30.2567 61.8656C33.4231 64.6802 37.2932 65.7356 41.5151 65.7356C46.0888 65.7356 50.6624 67.1429 54.1807 69.9575C56.9952 72.0684 59.8098 74.1794 62.9762 75.5867C64.0317 75.9385 64.7353 76.6421 66.1426 76.2903C66.1426 75.2348 65.439 74.5312 64.7353 73.8275C59.1062 66.0874 53.477 58.6992 47.8479 50.9591C47.1442 49.9036 45.7369 48.8481 46.7924 48.1445C47.8479 47.089 48.9033 48.4963 49.9588 49.2C57.6989 55.1809 65.7908 60.8101 73.8827 66.7911C74.2346 65.032 73.1791 63.9765 72.8273 62.5692C72.1236 58.6992 71.42 54.8291 70.7163 50.9591C70.0127 47.4408 68.6054 44.2744 66.1426 41.8117C62.6244 38.6453 60.8653 34.0716 60.5135 29.4979C60.5135 26.6833 59.1062 23.8687 57.3471 21.7578C55.588 19.9987 55.2361 17.5359 55.9398 15.425C57.3471 17.5359 59.1062 19.6469 61.5689 20.7023C63.6799 22.4614 65.439 24.5724 66.1426 27.387C67.5499 31.257 70.3645 34.7752 74.2346 36.5344C78.1046 38.6453 80.9192 42.1635 82.6783 46.0336C84.0856 48.4963 85.1411 51.3109 86.5483 53.7737C87.6038 55.8846 89.0111 57.2919 90.7702 58.6992C90.0666 52.3664 89.3629 46.7372 88.6593 41.108C87.9556 36.1825 87.6038 31.257 86.9002 26.3315C86.9002 25.9797 86.9002 25.9797 86.9002 25.6279C86.9002 24.9242 86.5483 23.5169 87.6038 23.1651C88.6593 22.8133 89.0111 24.2206 89.3629 24.9242C91.4739 29.8497 93.5848 34.7752 95.6957 39.7008C97.8067 44.6263 99.9176 49.5518 102.38 54.4773C102.029 48.8481 104.843 44.2744 106.602 39.3489C108.01 35.4789 108.01 31.6088 107.306 27.7388C106.25 23.8687 106.602 19.6469 108.361 15.7768C109.769 12.9622 110.472 9.79584 109.769 6.62944C109.065 4.16668 110.12 2.05574 111.88 0.296631C111.88 3.11121 112.583 5.57397 113.991 8.03673C115.046 10.4995 115.398 13.3141 114.694 15.7768C113.639 18.9432 114.342 22.4614 115.75 25.6279C119.971 32.3125 119.971 40.0526 118.916 47.4408C118.564 50.2554 118.916 53.07 119.971 55.8846L126.304 41.4599C128.767 36.1825 130.878 30.9052 133.341 25.276C133.693 24.5724 134.044 23.1651 135.1 23.5169C136.155 23.8687 135.803 25.276 135.803 25.9797C134.748 36.1825 133.341 46.3854 132.285 56.9401C135.452 51.3109 141.784 48.4963 146.006 43.9226C147.765 41.8117 149.173 39.3489 149.876 36.8862C150.932 32.6643 153.395 29.1461 156.913 26.6833C159.727 24.9242 161.838 22.4614 162.542 19.295C163.246 17.1841 165.005 15.425 167.468 15.425C166.06 17.1841 165.357 18.9432 165.357 21.0542C165.005 24.5724 163.597 28.0906 161.487 30.5534C159.024 33.3679 157.616 37.238 157.968 41.108C157.968 46.0336 156.209 50.9591 153.395 54.8291C150.58 57.9955 148.469 61.8656 147.062 66.0874C147.062 66.4393 147.062 66.4393 147.062 66.7911L147.414 66.4393C154.45 61.8656 160.783 56.2364 167.819 51.6627C170.282 49.5518 173.097 47.7927 175.911 46.3854C176.263 48.4963 174.856 49.5518 173.8 50.9591C168.171 58.6992 162.19 66.4393 156.209 74.5312C161.487 71.3648 167.819 72.0684 173.448 70.3093C176.615 69.6057 179.078 67.8466 181.54 65.7356C184.355 62.5692 188.225 60.8101 192.447 60.4583C195.965 60.4583 199.132 59.051 201.594 56.5882C203.002 55.1809 205.113 54.8291 207.223 55.1809C203.002 59.7546 199.483 65.032 193.151 66.7911C190.336 67.8466 187.873 69.9575 186.818 72.7721C184.003 77.3458 179.781 81.2158 174.856 82.9749C170.634 84.3822 167.116 86.845 163.949 90.0114L175.559 88.6041C182.596 87.9004 189.632 86.845 196.669 86.1413C197.372 86.1413 199.132 85.4377 199.132 86.4931C199.483 87.9004 198.076 88.2523 197.021 88.6041C187.873 92.4741 178.726 96.3442 169.578 100.214C168.875 100.566 168.523 100.566 168.171 100.918C173.8 100.566 178.726 103.381 183.651 105.14C187.17 106.547 191.04 106.547 194.558 105.843C198.78 104.436 203.353 104.788 207.223 106.899C210.038 108.306 212.853 108.658 216.019 108.306C218.482 107.603 220.945 108.306 222.352 110.417C219.889 110.417 217.778 110.769 215.667 112.176C212.853 113.583 210.038 113.935 207.223 113.232C202.65 112.528 197.724 113.583 193.854 116.046C188.577 119.213 182.948 118.509 177.319 117.805C173.8 117.454 170.282 117.454 167.116 118.509C175.208 122.027 182.244 124.842 189.632 128.008C192.447 129.064 195.261 130.471 198.076 131.878C198.78 132.23 199.835 132.582 199.483 133.637C199.132 134.341 198.076 133.989 197.724 133.989C192.095 133.286 186.466 132.934 180.837 132.23C175.911 131.526 170.986 131.175 166.412 130.471H165.708C165.708 130.823 166.06 130.823 166.412 130.823C170.282 133.286 173.8 136.804 176.263 140.674C179.078 144.192 182.948 147.007 187.17 148.062C191.04 149.118 194.558 151.58 196.669 154.747C198.428 157.561 201.242 159.672 204.409 160.728C206.52 161.431 207.927 163.19 207.927 165.301C205.464 163.894 203.002 163.19 200.187 163.19C197.372 162.839 194.558 161.431 192.447 159.672C189.281 157.209 185.41 155.802 181.54 155.802C176.615 155.802 171.689 154.043 167.819 150.877C164.301 147.71 160.079 145.599 155.857 144.544C159.727 149.821 163.246 154.395 166.764 159.32C169.578 163.19 172.745 167.412 175.559 171.282C175.911 171.986 176.967 173.041 176.263 173.745C175.559 174.449 174.504 173.393 173.8 173.041C166.06 167.412 158.672 161.783 151.284 156.154C150.58 155.802 149.876 155.099 149.173 154.747C148.821 154.395 148.821 154.043 148.117 154.395C148.469 154.747 148.469 154.747 148.821 155.099C150.932 159.672 151.987 164.246 152.339 169.171C153.043 173.041 154.802 176.912 157.616 179.726C160.783 182.541 162.542 186.411 162.894 190.633C162.894 193.799 164.301 196.965 166.412 199.428C167.819 201.187 168.523 203.65 167.468 205.761C166.412 203.298 164.301 201.187 161.838 199.78C159.376 198.021 157.968 195.558 156.913 192.744C155.506 189.225 153.043 186.059 149.876 184.3C145.303 181.485 141.784 177.263 139.674 172.338C138.266 168.116 135.803 164.246 132.637 161.08C132.989 165.301 133.693 169.171 134.044 173.041C134.748 179.726 135.803 186.411 136.507 192.744C136.507 193.799 136.507 194.854 136.507 195.558C136.507 195.91 136.507 196.614 135.803 196.614C135.452 196.614 135.1 196.262 135.1 195.91C134.396 194.854 133.693 193.799 133.341 192.744C129.471 184.3 125.952 175.504 122.082 167.061C121.731 166.357 121.731 166.005 121.027 165.653C121.379 170.227 120.323 174.801 117.861 178.671C115.75 183.244 115.046 188.17 116.453 193.095C117.509 196.965 117.157 201.187 115.046 205.057C113.639 207.872 113.287 210.687 113.639 213.853C114.342 216.316 113.287 218.778 111.528 220.186C111.528 217.723 111.176 215.26 109.769 213.149C108.713 211.038 108.361 208.224 108.713 205.761C109.417 200.835 108.713 195.558 105.899 191.336C102.732 186.411 103.788 180.43 104.139 174.801C104.491 171.282 104.491 167.764 103.436 164.598C100.621 171.282 98.1585 177.263 95.3439 182.893C93.5848 187.114 91.8257 191.336 90.0666 195.206C89.7147 195.91 89.3629 196.965 88.6593 196.614C87.9556 196.262 87.9556 195.206 88.3075 194.503C89.0111 187.114 90.0666 180.078 90.7702 172.69C91.4739 169.523 91.4739 166.005 91.4739 162.487C89.0111 166.357 85.8447 169.523 81.9746 171.986C78.1046 174.801 75.6418 178.671 74.2346 183.244C73.1791 187.114 70.7163 190.633 67.1981 193.095C64.3835 194.854 62.2726 197.669 61.2171 200.835C60.5135 202.946 58.7544 204.354 56.2916 204.706C57.6989 202.595 58.4025 200.132 58.4025 197.317C58.7544 194.503 59.8098 191.688 61.9208 189.577C64.7353 186.411 66.1426 182.189 65.7908 177.967C65.7908 173.041 67.5499 168.468 70.7163 164.598C73.5309 161.431 75.6418 157.913 76.6973 153.691C76.6973 153.339 76.6973 153.339 76.6973 152.988L75.29 156.506ZM155.506 101.973C155.857 101.27 155.857 100.214 155.506 99.5106C154.098 96.696 153.746 93.5296 153.395 90.3632C152.691 85.7895 149.525 81.5676 145.303 80.1603C142.136 78.7531 138.618 80.5122 135.452 79.4567C134.748 79.1049 134.396 80.1603 135.1 80.864C135.803 81.5676 136.859 81.9195 137.914 82.6231C140.025 83.6786 141.784 85.4377 142.84 87.1968C143.192 87.9004 143.895 88.2523 142.84 88.9559C140.729 90.3632 140.729 92.826 140.377 94.9369C141.433 95.2887 141.784 94.5851 142.136 94.2332C142.84 93.8814 143.544 92.826 144.247 93.5296C144.951 93.8814 144.599 94.9369 144.599 95.6405C144.951 102.325 142.488 108.658 137.914 113.232C135.452 116.046 132.285 118.157 128.767 118.861C129.823 115.343 129.119 112.88 127.008 112.528C126.656 112.528 125.601 111.824 125.601 112.88C125.952 115.694 123.842 118.157 121.027 118.509C118.564 119.213 115.75 119.213 113.287 119.213C116.453 120.62 119.62 121.675 123.138 121.675C136.859 121.675 145.303 113.935 151.284 102.677C152.691 99.8624 152.691 99.8624 155.506 101.973ZM124.193 68.1984C123.842 67.4947 123.138 67.1429 122.434 67.1429C118.916 66.7911 115.398 65.7356 112.583 63.9765C107.658 62.2174 102.029 63.9765 98.8621 68.1984C97.4548 70.3093 97.103 72.7721 94.9921 74.5312C94.6403 74.883 94.6403 75.2348 94.9921 75.2348C95.3439 75.5867 95.6957 75.5867 96.0475 75.5867C96.7512 75.2348 97.4548 74.883 98.1585 74.5312C100.269 73.1239 102.38 72.4203 104.843 72.0684C105.899 71.7166 106.954 71.7166 107.306 73.4757C107.658 75.5867 109.417 76.6421 111.176 77.6976C111.176 76.6421 111.176 76.2903 111.176 75.5867C110.824 73.4757 111.528 73.1239 113.287 74.1794C114.694 75.2348 116.453 76.2903 117.861 77.3458C124.545 82.6231 127.712 91.0668 125.952 99.5106C122.786 96.3442 120.675 96.3442 118.212 99.5106C121.379 99.8624 122.434 101.27 122.082 105.14C121.731 107.954 120.675 110.417 119.268 112.88C121.731 111.473 123.842 109.362 125.249 107.251C133.341 96.3442 129.823 81.5676 123.842 72.4202C121.731 69.9575 121.379 69.9575 124.193 68.1984ZM104.139 124.138C100.973 123.435 99.5658 121.675 100.269 118.157C100.973 115.694 101.677 113.232 103.084 110.769C99.9176 112.88 97.4548 115.694 95.6957 118.861C90.0666 130.119 92.5293 140.322 98.5103 150.525C100.269 153.691 100.621 153.339 97.8067 155.802C103.084 155.802 107.306 159.32 112.583 160.024C116.805 160.728 121.379 158.617 123.842 155.099C124.897 153.691 124.897 151.228 126.656 150.173C127.36 149.821 128.415 148.766 127.36 148.062C126.656 147.358 125.952 148.062 125.249 148.414C123.138 149.821 120.323 150.877 117.509 151.228C116.453 151.228 115.398 151.228 115.398 149.821C115.046 147.71 113.287 146.655 111.528 145.248C111.528 146.303 111.528 146.655 111.528 147.007C111.528 147.71 111.88 148.766 111.176 149.118C110.472 149.469 109.769 148.766 109.065 148.414C106.25 146.655 103.436 144.544 101.325 142.081C96.7512 136.804 94.9921 130.119 96.3994 123.435C99.5658 127.305 100.621 127.305 104.139 124.138Z" fill="#1C3E5C"/>
<path d="M459.396 119.797C461.812 117.139 463.745 114.965 465.677 112.79C466.644 111.582 467.852 110.133 469.543 110.858C471.476 111.582 471.476 113.515 471.234 115.206C470.751 121.247 470.026 127.287 469.302 133.327C469.06 134.777 469.06 136.468 469.06 137.918C471.718 134.052 473.892 130.186 475.825 125.837C477.516 122.696 479.208 119.314 480.899 116.173C481.382 115.448 481.624 114.482 482.832 114.482C484.281 114.482 484.281 115.931 484.523 116.898C486.214 121.73 484.765 126.804 484.04 131.636C482.832 139.609 481.624 147.582 481.14 155.555C480.899 157.972 481.141 160.388 481.382 163.045C481.624 164.978 481.382 167.394 478.966 167.636C476.792 167.878 476.792 165.461 476.308 164.012C475.342 159.421 476.308 154.831 476.792 150.482C477.516 143.958 478.241 137.676 478.483 130.911C477.033 134.052 475.583 136.951 473.892 140.092C472.926 141.784 471.959 143.475 470.751 144.925C469.543 146.374 467.61 146.857 465.677 146.374C463.986 145.891 463.503 144.2 463.261 142.75C463.261 138.643 463.503 134.777 464.228 130.67C464.469 126.804 464.953 123.18 465.436 118.589C461.087 121.73 458.912 124.871 459.879 129.703C460.845 135.502 460.12 141.542 457.704 146.857C456.738 149.757 455.53 152.898 451.664 152.414C448.04 151.931 448.282 148.307 447.557 145.649C447.073 143.233 446.832 140.576 446.349 137.435C444.174 142.267 442.241 146.857 436.443 146.857C432.818 146.857 431.852 143.717 430.402 141.059C428.711 143.475 427.261 145.891 425.57 148.307C424.604 150.24 422.188 151.448 420.013 150.965C417.597 150.482 417.355 148.065 416.631 146.133C416.389 145.408 416.389 144.925 416.389 144.2C411.074 147.582 407.933 145.891 407.208 139.368C406.725 134.294 406.483 129.22 406 123.18C402.617 128.253 402.134 133.327 400.201 138.159C399.718 139.126 399.718 140.334 398.993 141.542C398.268 143.475 396.335 144.441 394.644 143.958C392.47 143.475 392.47 141.542 392.47 139.851C392.47 137.193 392.47 134.535 392.228 131.636C390.537 136.71 389.57 142.025 387.879 147.099C386.913 149.757 386.188 151.931 383.288 152.173C380.631 152.414 379.906 149.998 379.664 147.824C379.423 145.649 378.215 146.857 377.248 147.099C373.624 148.065 371.933 147.099 372.174 143.233C372.416 139.126 372.899 135.019 373.866 130.911C375.074 126.562 374.349 123.904 369.275 123.421C368.309 129.462 367.825 135.502 366.376 141.542C365.651 144.2 364.684 146.857 363.235 149.515C362.268 151.448 360.335 152.656 358.161 152.656C355.745 152.414 354.778 150.482 354.295 148.307C353.329 143.958 352.845 139.368 352.845 134.777C352.845 132.844 352.845 130.67 352.845 128.737H351.637C350.429 134.052 349.221 139.126 348.013 144.441C347.288 146.857 346.564 149.515 345.839 151.931C345.114 154.106 343.664 155.797 341.007 155.314C338.832 154.831 339.315 156.763 339.074 157.488C338.107 159.663 336.658 161.596 334.241 161.354C331.584 161.112 331.342 158.696 331.101 156.522C330.859 154.106 330.617 151.448 330.376 147.582C327.96 151.448 326.268 154.106 324.335 157.005C322.403 160.388 319.745 163.287 316.362 165.461C309.356 169.81 302.591 166.911 301.382 158.696C298.966 142.267 299.208 125.596 299.691 108.925C299.691 102.401 300.416 95.6361 301.624 89.1126C301.624 88.3878 301.866 87.9045 302.107 87.1797C302.832 85.4884 303.315 82.8307 305.973 83.5556C308.389 84.0388 307.664 86.4549 307.423 88.1462C303.557 109.649 304.04 131.153 305.731 152.898C305.973 156.039 305.973 159.663 309.356 160.871C312.98 162.079 315.879 159.421 318.054 156.763C322.644 151.206 326.752 144.925 329.892 138.401C331.825 134.777 331.584 130.67 332.55 126.562C333.275 123.18 334 119.797 337.382 117.623C339.074 116.415 341.248 116.415 342.939 117.139C344.631 118.106 343.423 119.797 343.423 121.247C343.423 127.77 343.423 134.535 343.423 142.025C345.356 137.193 346.805 132.361 348.013 127.287C348.98 123.904 349.946 120.28 350.913 116.898C351.396 115.69 351.879 114.24 353.329 114.24C354.778 114.24 355.262 115.69 355.745 116.898C357.194 121.247 356.47 125.596 356.47 130.186C356.953 135.502 357.436 140.576 358.402 145.891C361.302 140.092 363.235 134.052 364.201 127.77C364.926 124.146 365.168 120.28 365.892 116.656C365.892 115.448 366.617 114.24 367.584 113.757C368.792 113.274 369.275 114.482 370.241 115.206C377.006 121.247 375.798 121.488 382.805 114.24C383.53 113.515 384.255 112.066 385.463 112.549C386.913 113.032 386.913 114.482 386.671 115.931C385.946 122.213 385.221 128.253 384.496 134.535C384.255 137.193 384.255 139.851 384.496 142.508C386.912 136.951 388.604 130.911 389.57 124.871C390.295 121.488 390.778 118.106 391.503 114.965C391.986 113.274 392.711 111.099 394.886 111.099C396.577 111.099 397.302 113.032 397.785 114.723C398.993 119.314 398.268 124.146 398.751 129.945C400.201 126.562 401.168 124.146 402.134 121.488C402.859 119.314 403.825 117.139 405.275 115.206C407.449 112.307 409.865 112.79 411.074 116.173C412.765 121.005 412.04 126.079 412.523 130.911C412.765 133.086 412.523 135.26 412.765 137.435C412.765 138.643 413.006 140.092 414.456 140.334C415.906 140.576 416.872 139.368 417.355 138.159C417.839 137.193 418.08 136.227 418.08 135.26C418.563 129.703 420.013 124.146 422.429 119.072C423.637 115.69 426.295 113.032 429.919 112.307C432.335 111.824 432.094 110.133 432.335 108.441C432.818 101.193 433.785 93.9448 435.476 86.9381C435.959 84.522 436.684 82.3475 437.892 80.4146C438.375 79.6898 438.859 78.965 440.067 79.2066C441.275 79.4482 441.275 80.4146 441.275 81.3811C441.275 82.3475 441.275 83.0723 441.275 84.0388C440.067 90.3206 439.342 96.8441 439.1 103.126C438.859 109.891 438.134 116.656 436.926 123.421C436.201 128.012 435.959 132.602 436.684 136.951C436.684 138.401 436.684 140.334 438.375 140.576C440.308 140.817 441.033 138.884 441.516 137.676C443.449 132.844 445.141 128.012 447.073 123.18C448.04 120.039 449.973 117.381 452.631 115.448C456.255 113.032 457.221 113.515 458.671 117.623C458.912 117.864 459.154 118.589 459.396 119.797ZM422.429 145.166C428.469 140.817 434.027 123.904 432.094 117.381C431.852 116.656 432.094 115.69 431.127 115.448C429.919 115.206 429.194 116.173 428.711 116.898C423.154 125.596 422.188 135.019 422.429 145.166ZM335.933 151.931C339.074 144.441 339.798 136.227 338.107 128.495C336.416 136.227 335.933 143.958 335.933 151.931ZM453.839 143.958C456.013 139.126 456.979 133.81 456.979 128.495C450.698 133.086 453.355 138.643 453.839 143.958ZM453.114 127.287C454.805 125.113 457.221 123.663 456.013 120.522C455.771 119.797 455.771 118.831 454.805 118.589C453.839 118.347 453.114 119.314 452.631 120.039C451.181 122.455 452.389 124.629 453.114 127.287ZM380.872 125.113C378.698 129.22 377.731 134.052 378.215 138.884C380.389 134.535 381.355 129.945 380.872 125.113Z" fill="#1C3E5C"/>
<path d="M272.912 140.424C273.637 139.457 274.361 138.732 275.569 138.007C275.811 137.766 276.053 137.766 276.536 137.766C276.777 137.766 277.019 137.766 277.261 138.007C277.986 138.732 277.986 140.907 277.019 142.84C274.845 147.189 271.462 151.054 267.113 153.471C268.08 148.638 270.012 144.289 272.912 140.424ZM281.851 169.658C279.435 170.142 276.778 170.383 274.361 170.383C272.187 170.142 270.254 169.417 268.804 167.726C267.355 165.551 266.388 162.893 266.388 160.477C272.912 156.853 278.71 152.504 281.851 145.497C283.543 141.632 283.784 136.558 280.402 133.658C278.469 131.967 275.569 131.726 273.395 132.934C271.704 133.9 270.012 135.108 268.804 136.799C264.697 142.356 262.039 149.122 261.073 156.128V156.853C260.348 158.303 260.348 158.303 259.623 159.994C257.449 163.86 254.791 167.484 251.892 170.625C249.717 173.283 246.818 175.94 243.194 174.732C239.811 173.524 239.811 169.658 239.57 166.759C237.878 145.256 237.395 123.511 241.261 102.008C241.502 100.316 242.227 97.9001 239.811 97.4169C237.395 96.6921 236.67 99.3498 235.945 101.041C236.187 101.766 236.187 102.249 235.945 102.974C234.737 109.497 234.012 116.021 234.012 122.786C233.529 139.457 233.288 156.128 235.704 172.558C236.912 180.772 243.677 183.672 250.684 179.323C253.825 177.148 256.724 174.249 258.657 170.866C259.623 169.175 260.59 167.484 261.798 165.793C262.281 167.967 263.489 169.9 264.697 171.591C267.113 174.249 270.254 175.699 273.878 175.94C274.603 175.94 275.086 175.94 275.811 175.94C278.227 175.94 280.402 175.699 282.818 175.215C284.267 174.974 285.234 173.524 284.992 171.833C284.751 170.625 283.543 169.417 281.851 169.658Z" fill="#1C3E5C"/>
</g>
<defs>
<clipPath id="clip0_2550_8">
<rect width="485.31" height="219.889" fill="white" transform="translate(0 0.296631)"/>
</clipPath>
</defs>
</svg>
